<?xml version="1.0" standalone="no"?>
<!DOCTYPE svg PUBLIC "-//W3C//DTD SVG 20010904//EN"
 "http://www.w3.org/TR/2001/REC-SVG-20010904/DTD/svg10.dtd">
<svg version="1.0" xmlns="http://www.w3.org/2000/svg"
 width="1001.000000pt" height="1500.000000pt" viewBox="0 0 1001.000000 1500.000000"
 preserveAspectRatio="xMidYMid meet">
<metadata>
Created by potrace 1.16, written by Peter Selinger 2001-2019
</metadata>
<g transform="translate(0.000000,1500.000000) scale(0.100000,-0.100000)"
fill="#000000" stroke="none">
<path d="M1570 14961 c0 -74 64 -92 158 -45 48 24 70 54 40 54 -9 0 -8 4 2 10
18 12 20 11 -102 16 l-98 3 0 -38z"/>
<path d="M1314 14892 c-16 -11 1 -62 33 -97 157 -174 236 -259 285 -310 32
-33 74 -80 94 -105 20 -25 66 -77 103 -116 36 -39 107 -116 156 -170 278 -305
586 -613 859 -859 49 -44 94 -85 100 -90 6 -6 79 -67 161 -135 83 -68 152
-127 155 -130 19 -24 364 -280 607 -450 289 -202 396 -294 648 -556 289 -299
282 -293 313 -301 29 -7 56 7 60 32 3 11 0 15 -7 11 -8 -5 -8 -1 0 17 9 19 7
31 -7 58 -26 52 -216 251 -227 240 -6 -6 24 -46 87 -113 53 -57 96 -108 96
-115 0 -31 -24 -13 -114 87 -93 103 -117 119 -129 86 -3 -7 37 -56 88 -109 51
-54 90 -97 87 -97 -2 0 7 -9 21 -20 31 -25 44 -26 26 -2 -13 15 -12 16 4 3 9
-8 15 -16 12 -19 -3 -3 5 -12 17 -19 l23 -14 -25 7 c-40 10 -81 46 -176 152
-49 55 -92 101 -97 101 -4 1 -81 74 -170 164 -189 189 -315 296 -597 507 -338
253 -674 529 -970 799 -194 177 -634 623 -855 866 -110 121 -219 240 -243 265
-34 36 -42 50 -38 72 5 23 3 26 -19 22 -17 -3 -31 4 -52 29 -60 72 -287 317
-292 317 -3 0 -11 -4 -17 -8z"/>
<path d="M2050 14798 c-81 -55 -104 -150 -57 -233 76 -134 261 -101 297 53 25
107 -39 192 -148 200 -47 3 -63 0 -92 -20z m165 -63 c38 -37 31 -95 -11 -95
-15 0 -24 -6 -24 -15 0 -16 -34 -27 -65 -21 -11 3 -23 5 -27 5 -3 1 -13 15
-22 31 -9 19 -10 28 -3 23 7 -4 6 0 -2 10 -51 63 94 122 154 62z"/>
<path d="M9315 14642 c-38 -38 -133 -126 -210 -197 -140 -130 -325 -302 -574
-535 -74 -69 -145 -135 -160 -148 -70 -62 -151 -78 -226 -43 -27 12 -142 122
-366 352 -179 184 -368 377 -419 429 -92 94 -92 94 -15 10 126 -137 583 -628
665 -714 41 -44 85 -90 98 -103 51 -55 133 -67 200 -30 37 20 252 226 892 854
107 106 193 192 190 193 -3 0 -36 -31 -75 -68z"/>
<path d="M9823 14279 l-101 -89 -24 28 c-21 24 -25 26 -39 12 -33 -31 -60 -50
-98 -70 -23 -11 -48 -34 -57 -51 -11 -23 -21 -30 -35 -26 -10 3 -19 0 -19 -5
0 -6 -8 -4 -17 4 -10 8 -26 18 -36 21 -10 4 -16 11 -13 16 3 5 -1 14 -9 21 -7
6 -12 17 -9 25 3 7 1 16 -5 19 -16 11 -33 -60 -25 -111 8 -59 35 -106 69 -121
41 -19 99 -15 131 10 47 35 168 142 176 154 4 6 46 43 92 83 93 78 129 121
124 150 -2 15 -23 1 -105 -70z"/>
<path d="M7561 13758 c-46 -23 -95 -86 -106 -140 -4 -16 -1 -59 5 -95 11 -55
20 -73 54 -108 71 -74 165 -83 248 -24 59 43 95 173 68 253 -37 113 -163 166
-269 114z"/>
<path d="M7123 13331 c-163 -74 -141 -346 32 -396 43 -13 62 -14 95 -5 175 47
200 326 36 401 -52 24 -110 24 -163 0z"/>
<path d="M9295 13269 c-16 -5 -79 -56 -140 -113 l-110 -104 29 -31 c17 -17 32
-31 35 -31 4 0 24 16 46 35 52 45 133 85 170 85 17 0 47 -5 68 -11 46 -13 77
-4 77 22 0 11 -12 42 -26 69 -19 36 -36 54 -68 69 -23 12 -44 21 -47 20 -2 0
-17 -5 -34 -10z"/>
<path d="M6239 12962 c-258 -238 -424 -389 -588 -536 -157 -140 -214 -167
-303 -146 -37 9 -65 26 -111 69 l-62 56 50 -57 c30 -34 71 -68 103 -84 50 -25
56 -26 107 -15 51 12 69 26 422 350 409 375 510 470 503 470 -3 0 -57 -48
-121 -107z"/>
<path d="M8968 12723 c-51 -47 -113 -105 -138 -127 -73 -67 -91 -84 -1045
-981 -453 -426 -565 -529 -569 -524 -2 2 -11 18 -19 35 -9 17 -58 76 -110 130
-83 87 -96 97 -111 85 -25 -21 -20 -35 37 -92 29 -30 71 -76 92 -104 22 -27
48 -56 58 -63 9 -7 17 -20 17 -28 0 -8 -8 -17 -17 -21 -10 -3 -26 -13 -35 -20
-15 -13 -19 -12 -40 12 -13 15 -58 54 -101 87 l-79 60 -22 -21 c-12 -12 -27
-21 -32 -21 -14 0 -84 -73 -84 -88 0 -7 -4 -12 -10 -12 -5 0 -10 -7 -10 -16 0
-9 -16 -32 -36 -50 -19 -19 -32 -34 -27 -34 4 0 0 -5 -9 -11 -24 -14 -23 -39
1 -34 10 2 27 8 37 13 64 34 147 62 184 62 24 0 70 -12 110 -30 38 -16 79 -30
92 -30 38 0 99 38 168 106 36 35 117 109 180 166 63 56 158 143 210 193 52 51
124 118 160 150 36 32 88 80 115 106 28 26 64 60 80 75 17 15 109 101 205 193
96 91 225 213 285 270 264 250 326 312 337 336 6 14 15 25 19 25 5 0 12 17 15
39 3 21 11 38 18 38 31 -1 47 4 41 12 -3 5 4 12 15 16 11 3 20 10 20 14 0 5
28 9 63 9 83 2 102 6 101 23 -2 32 -17 69 -35 85 -10 9 -19 23 -19 30 0 32
-25 18 -112 -63z"/>
<path d="M9890 12609 c-63 -55 -157 -137 -207 -182 l-93 -82 6 -90 6 -91 -103
-84 c-56 -47 -121 -101 -144 -120 -23 -19 -53 -44 -66 -54 -28 -22 -362 -319
-399 -355 -14 -13 -18 -20 -10 -15 13 7 13 5 1 -9 -7 -9 -20 -17 -27 -17 -8 0
-14 -5 -14 -10 0 -6 -5 -9 -12 -8 -7 2 -12 -2 -13 -8 0 -15 -85 -85 -95 -79
-4 3 -14 -3 -21 -13 -12 -15 -12 -16 1 -7 9 6 7 2 -3 -7 -11 -10 -24 -15 -30
-11 -5 3 -7 1 -4 -4 9 -14 -19 -37 -34 -27 -7 4 -9 3 -6 -4 7 -10 -121 -112
-139 -112 -5 0 -15 -9 -22 -20 -7 -11 -16 -20 -21 -20 -6 0 -24 -13 -42 -30
-18 -16 -36 -27 -40 -25 -4 3 -9 -2 -12 -10 -4 -8 -23 -23 -44 -35 -33 -18
-66 -42 -143 -103 -78 -62 -148 -112 -213 -152 -77 -46 -78 -47 -99 -29 l-21
19 17 -32 c11 -21 24 -33 37 -33 51 0 499 324 904 654 212 173 648 540 755
636 47 41 148 130 225 195 232 199 247 215 243 251 -3 31 -3 31 -162 -108 -88
-77 -172 -148 -187 -159 l-28 -19 -11 56 c-7 30 -9 65 -6 77 4 12 37 47 73 77
141 116 318 274 321 287 2 7 2 13 0 12 -2 0 -55 -45 -118 -100z"/>
<path d="M6925 12004 c-217 -208 -438 -417 -600 -569 -93 -87 -215 -202 -270
-254 -102 -98 -419 -394 -690 -646 -82 -76 -193 -180 -245 -230 -52 -51 -169
-161 -260 -246 -91 -85 -223 -211 -295 -280 -71 -69 -173 -166 -225 -215 -52
-49 -147 -139 -210 -199 -175 -167 -595 -563 -680 -640 -43 -38 -103 -81 -140
-99 -57 -27 -76 -31 -150 -31 -66 0 -95 5 -131 21 -55 26 -124 86 -145 127 -9
16 -18 26 -21 23 -3 -3 6 -24 20 -48 63 -108 154 -160 277 -162 64 0 84 4 142
31 69 33 136 91 488 427 74 72 229 220 345 330 115 111 295 284 400 386 206
201 574 549 824 779 86 79 226 210 311 290 85 81 234 221 330 311 96 91 334
315 529 500 194 184 375 354 400 377 40 35 109 114 99 113 -2 -1 -48 -44 -103
-96z"/>
<path d="M630 11163 c0 -18 8 -43 18 -55 9 -12 118 -124 242 -249 124 -125
275 -278 337 -341 61 -62 157 -156 213 -208 56 -52 164 -158 241 -234 92 -93
143 -136 149 -130 7 7 -112 135 -352 380 -199 203 -423 432 -498 509 -376 388
-350 364 -350 328z"/>
<path d="M7216 10262 c-17 -27 125 -196 494 -592 28 -30 95 -102 148 -159 181
-195 358 -372 365 -365 4 4 7 0 7 -9 0 -10 6 -17 14 -17 8 0 17 -6 19 -12 4
-10 6 -10 6 0 1 13 -64 91 -199 237 -30 33 -111 123 -180 200 -69 76 -155 171
-191 209 -36 39 -97 107 -135 150 -76 87 -335 366 -340 366 -1 0 -5 -4 -8 -8z"/>
<path d="M9880 10025 c-15 -18 -34 -20 -24 -2 4 6 -2 3 -14 -7 -26 -23 -30
-34 -4 -15 15 13 16 12 3 -3 -7 -10 -17 -16 -21 -13 -4 2 -27 -15 -51 -38 -25
-23 -64 -59 -87 -80 -23 -21 -40 -42 -37 -46 2 -5 -5 -17 -18 -27 -18 -16 -19
-16 -8 -1 7 9 9 17 4 17 -13 0 -65 -55 -58 -62 3 -2 -5 -13 -17 -24 l-23 -19
19 23 c11 12 14 22 8 22 -6 0 -14 -5 -17 -10 -3 -6 -23 -19 -43 -31 -27 -14
-30 -19 -13 -15 18 4 21 2 12 -7 -6 -6 -42 -12 -81 -12 -46 0 -65 -3 -59 -10
6 -5 40 -10 77 -9 72 0 102 13 155 66 15 15 29 28 32 28 9 0 45 40 45 50 0 6
9 10 20 10 11 0 19 4 18 8 -2 4 21 30 51 58 101 91 131 122 131 132 0 6 6 12
13 15 6 2 9 7 6 11 -3 4 -12 0 -19 -9z"/>
<path d="M6440 9957 c0 -16 44 -71 133 -168 72 -79 213 -234 312 -344 208
-231 189 -210 240 -266 22 -24 105 -116 185 -204 79 -88 165 -182 190 -210 26
-27 149 -162 275 -300 126 -137 236 -257 244 -266 36 -36 213 -229 272 -297
66 -75 98 -94 124 -72 22 19 19 23 -32 47 -40 18 -113 94 -443 459 -217 241
-512 567 -655 724 -143 158 -386 427 -540 598 -154 171 -286 313 -292 316 -8
3 -13 -3 -13 -17z"/>
<path d="M5503 9864 c-19 -14 -37 -41 -44 -64 -10 -34 -9 -44 10 -80 12 -23
17 -39 12 -36 -16 10 -41 74 -42 108 l-1 33 -8 -35 c-5 -20 -4 -42 1 -52 6
-10 7 -23 4 -28 -3 -5 -1 -11 5 -15 5 -3 10 -11 10 -16 0 -6 -4 -8 -9 -4 -5 3
-13 1 -16 -5 -4 -6 -3 -10 2 -9 4 1 19 0 33 -1 18 -2 20 -4 8 -7 -22 -6 -24
-23 -2 -23 10 0 14 -6 10 -15 -4 -10 1 -15 14 -15 13 0 20 -7 20 -20 0 -11 3
-19 8 -19 18 3 46 -3 34 -8 -18 -7 -4 -23 21 -24 12 0 16 -3 10 -6 -22 -8 -14
-23 12 -23 14 0 25 -5 25 -11 0 -5 -4 -7 -10 -4 -5 3 -10 2 -10 -3 0 -6 12
-13 27 -17 19 -4 23 -9 14 -15 -10 -5 -5 -10 17 -15 21 -4 29 -11 25 -21 -3
-9 2 -14 16 -14 14 0 19 -5 15 -15 -4 -10 0 -15 16 -15 11 0 19 -4 15 -9 -3
-6 4 -15 15 -21 11 -6 18 -15 15 -21 -8 -12 20 -23 35 -14 6 4 -10 30 -42 65
-127 141 -180 203 -152 178 17 -16 34 -28 38 -28 4 0 25 12 47 28 27 19 37 32
33 45 -4 11 0 17 10 17 9 0 16 4 16 8 0 13 -114 122 -128 122 -15 0 -15 10 -2
30 9 13 15 10 37 -15 71 -82 105 -115 116 -115 17 0 37 21 37 38 0 16 -152
181 -184 199 -37 21 -98 15 -133 -13z"/>
<path d="M1165 9760 c-55 -55 -65 -70 -52 -76 9 -3 15 -10 12 -15 -8 -11 24
-4 59 14 16 9 47 19 68 22 28 5 42 14 50 31 10 22 7 29 -22 59 -19 19 -37 35
-40 35 -3 0 -37 -31 -75 -70z"/>
<path d="M1016 9552 c-31 -26 -202 -180 -379 -342 -178 -162 -394 -359 -480
-438 -146 -133 -157 -146 -157 -179 l0 -35 38 32 c33 30 307 281 626 575 233
215 316 280 388 304 19 6 44 21 56 32 20 18 21 22 8 48 -29 55 -38 55 -100 3z"/>
<path d="M5165 9530 c-63 -26 -108 -130 -72 -168 17 -18 114 -125 159 -174 23
-26 29 -28 48 -18 34 18 59 43 54 52 -3 4 0 8 6 8 7 0 9 7 6 16 -3 8 -2 12 4
9 22 -14 7 9 -42 66 -30 34 -58 57 -66 54 -7 -2 -10 0 -7 5 3 6 1 10 -4 10 -6
0 -11 9 -11 19 0 20 -18 31 -51 31 -12 0 -19 7 -19 20 0 29 55 28 71 -2 7 -12
46 -58 89 -101 71 -74 78 -79 98 -66 12 7 23 18 26 24 2 6 -34 54 -80 105 -98
110 -147 136 -209 110z"/>
<path d="M5050 9388 c0 -35 31 -97 49 -98 7 0 11 -6 8 -14 -3 -8 2 -16 15 -19
12 -3 17 -10 13 -17 -4 -7 2 -14 14 -17 11 -3 18 -10 15 -15 -3 -5 3 -12 15
-15 12 -3 21 -12 21 -19 0 -8 7 -14 16 -14 10 0 14 -6 10 -15 -3 -8 0 -15 6
-15 13 0 58 -47 58 -61 0 -5 7 -9 15 -9 8 0 15 -7 15 -15 0 -8 7 -15 15 -15 8
0 15 -7 15 -15 0 -18 26 -20 33 -2 7 19 -275 323 -296 319 -11 -2 -15 2 -11
11 2 7 -2 27 -11 43 l-15 29 0 -27z"/>
<path d="M6171 9162 c-27 -13 -37 -27 -48 -64 -17 -60 -9 -80 65 -159 32 -35
71 -79 87 -96 16 -18 34 -33 41 -33 7 0 15 -6 17 -12 3 -7 6 -3 6 8 1 12 12
29 26 38 14 9 25 25 25 36 0 11 5 20 12 20 7 0 -12 24 -41 54 -35 35 -59 53
-70 49 -13 -4 -13 -3 -2 5 11 8 10 12 -7 21 -13 7 -19 17 -16 26 5 11 -3 17
-24 21 -40 8 -49 32 -16 40 22 6 33 -2 77 -52 128 -146 121 -140 151 -121 14
10 26 22 26 29 0 6 -39 51 -87 99 -107 110 -151 128 -222 91z"/>
<path d="M6089 9080 c-6 -47 -6 -60 1 -60 4 0 11 -16 14 -35 4 -21 13 -35 21
-35 9 0 12 -6 9 -15 -4 -9 0 -15 9 -15 8 0 17 -9 20 -20 3 -11 13 -20 24 -20
15 0 16 -2 3 -10 -12 -8 -11 -11 8 -16 15 -4 21 -12 18 -21 -3 -8 -2 -12 2 -9
4 2 14 0 22 -5 13 -8 13 -10 0 -19 -13 -8 -13 -10 1 -10 18 0 224 -198 224
-215 0 -5 13 -12 29 -15 17 -3 28 -9 25 -15 -12 -29 136 -8 154 22 4 7 15 13
22 13 8 0 15 7 15 15 0 8 5 15 12 15 6 0 8 3 5 6 -3 4 -1 16 5 28 15 28 23
107 9 86 -6 -8 -11 -25 -11 -38 0 -13 -4 -20 -10 -17 -6 3 -7 -1 -4 -10 7 -18
-18 -59 -49 -80 -31 -20 -112 -28 -139 -14 -40 21 -71 51 -180 174 -59 66
-135 151 -169 189 -45 48 -66 81 -75 115 -7 25 -14 39 -15 31z"/>
<path d="M1470 9007 c0 -6 9 -26 19 -43 18 -30 165 -188 563 -609 42 -44 88
-93 103 -110 15 -16 46 -50 69 -75 61 -67 217 -240 257 -284 19 -21 57 -62 84
-90 45 -48 128 -140 197 -220 59 -69 88 -99 91 -95 1 2 10 35 20 73 l17 70
-122 125 c-158 161 -143 147 -353 351 -99 96 -263 256 -365 355 -102 99 -274
267 -382 372 -109 106 -198 187 -198 180z"/>
<path d="M4697 8972 c-8 -11 12 -39 71 -99 17 -19 32 -38 32 -43 0 -6 7 -10
15 -10 8 0 15 -5 15 -10 0 -6 20 -31 45 -56 25 -24 45 -49 45 -54 0 -6 7 -10
15 -10 8 0 15 -7 15 -15 0 -8 7 -15 15 -15 8 0 15 -4 15 -10 0 -17 39 -50 60
-50 26 0 25 8 -2 39 l-23 26 25 -21 c33 -28 95 -47 126 -40 50 13 93 49 100
84 11 58 -11 101 -104 200 l-87 93 -30 -25 -30 -24 83 -91 c46 -50 81 -95 77
-101 -8 -14 -42 9 -49 33 -3 13 -10 17 -20 14 -11 -4 -18 1 -22 18 -7 27 -76
95 -97 95 -7 0 -32 -20 -55 -43 -38 -38 -41 -45 -27 -57 8 -7 15 -16 15 -21 0
-5 -8 -1 -18 9 -35 33 -76 62 -89 62 -7 0 -13 7 -13 15 0 8 -5 15 -11 15 -6 0
-9 7 -6 15 6 14 -7 28 -30 31 -16 3 -38 25 -45 44 -3 10 -6 11 -11 2z"/>
<path d="M4317 8594 c8 -13 20 -24 25 -24 5 0 6 -5 3 -11 -4 -6 2 -13 13 -16
13 -3 18 -11 15 -19 -3 -8 1 -14 11 -14 9 0 16 -7 16 -15 0 -8 7 -15 15 -15 8
0 15 -5 15 -10 0 -6 20 -31 45 -56 25 -24 45 -49 45 -54 0 -6 7 -10 15 -10 8
0 15 -6 15 -14 0 -7 9 -16 20 -19 11 -3 19 -11 18 -19 -2 -7 3 -12 10 -10 8 1
16 -7 19 -18 3 -11 10 -17 15 -14 5 3 12 -3 15 -14 6 -26 28 -35 43 -17 9 10
1 23 -35 59 -25 25 -50 46 -56 46 -6 0 -8 4 -5 9 5 8 -47 68 -201 232 -29 30
-52 47 -68 47 -23 0 -23 -2 -8 -24z"/>
<path d="M5728 8613 c6 -2 12 -9 12 -14 0 -5 14 -23 30 -39 17 -16 30 -32 30
-34 0 -3 19 -26 43 -50 23 -25 58 -64 77 -86 19 -22 40 -40 47 -40 7 0 13 -7
13 -15 0 -8 5 -15 10 -15 6 0 10 -7 10 -15 0 -8 7 -15 15 -15 8 0 15 -6 15
-14 0 -7 9 -16 21 -19 12 -3 18 -10 15 -16 -10 -16 11 -22 24 -6 14 17 10 23
-104 148 -43 48 -83 84 -88 81 -5 -3 -7 0 -6 8 2 7 -3 12 -9 11 -7 -2 -13 3
-13 10 0 24 -123 129 -147 126 -5 0 -2 -3 5 -6z"/>
<path d="M6065 8600 c-21 -23 -23 -19 98 -146 33 -34 55 -64 50 -67 -19 -12
-48 0 -51 21 -2 12 -15 24 -31 30 -17 6 -31 20 -35 35 -5 21 -54 65 -65 58 -2
-1 -8 3 -12 11 -6 10 -20 2 -53 -32 l-45 -45 87 -96 c48 -53 97 -102 110 -108
35 -17 94 -13 126 8 17 11 33 18 37 16 4 -3 12 8 19 24 17 42 3 98 -38 145
-69 79 -157 166 -168 166 -6 0 -19 -9 -29 -20z"/>
<path d="M4670 8585 l-23 -25 23 -27 c14 -16 49 -53 78 -84 33 -35 50 -59 43
-63 -14 -9 -31 1 -31 19 0 8 -11 17 -25 21 -14 3 -25 12 -25 18 0 7 -18 29
-40 51 -37 36 -41 38 -64 25 -14 -7 -38 -27 -55 -44 l-30 -31 92 -97 c52 -54
103 -99 117 -102 57 -12 63 -15 22 -12 -23 2 -40 0 -36 -5 3 -5 0 -9 -6 -9 -6
0 -10 -8 -8 -17 3 -14 14 -18 53 -19 50 -2 118 22 109 38 -3 5 1 20 10 33 24
36 19 41 -11 14 l-28 -24 22 25 c58 66 50 120 -31 208 -64 71 -124 132 -129
132 -2 0 -14 -11 -27 -25z"/>
<path d="M4012 8454 c-36 -19 -57 -51 -67 -106 -6 -32 -3 -39 24 -64 17 -15
31 -32 31 -38 0 -17 134 -141 153 -142 11 -1 34 14 53 33 34 34 43 53 24 53
-5 0 -10 7 -10 15 0 23 -81 107 -97 101 -9 -4 -16 5 -20 25 -6 31 -8 33 -55
43 -38 9 -31 40 10 44 18 2 32 -1 32 -7 0 -16 161 -201 174 -201 7 0 23 11 36
25 l23 24 -71 78 c-38 43 -81 89 -95 102 -34 31 -100 38 -145 15z"/>
<path d="M5695 8256 l-30 -24 21 -24 c11 -12 36 -41 55 -62 19 -22 49 -55 67
-73 38 -38 37 -47 -2 -37 -17 4 -26 13 -26 26 0 14 -5 18 -15 14 -8 -3 -15 -1
-15 4 0 6 -7 18 -15 28 -9 9 -27 31 -40 48 -14 18 -34 34 -45 37 -20 5 -64
-22 -88 -55 -7 -10 -19 -15 -25 -11 -20 12 14 -28 103 -120 49 -50 99 -91 117
-98 43 -14 96 -2 124 27 12 13 26 21 30 18 10 -6 11 94 1 117 -4 9 -47 59 -97
113 l-90 96 -30 -24z"/>
<path d="M5343 8255 c0 -8 6 -15 14 -15 7 0 13 -6 13 -13 0 -7 12 -24 28 -37
15 -14 43 -45 63 -70 20 -25 53 -62 73 -83 20 -21 36 -43 36 -48 0 -5 7 -9 15
-9 8 0 15 -4 15 -10 0 -16 38 -50 56 -50 10 0 14 -6 11 -14 -8 -20 3 -27 25
-15 18 10 18 11 -2 37 -12 15 -59 68 -104 117 -45 50 -97 106 -114 125 -19 21
-29 27 -25 16 4 -14 3 -17 -6 -12 -7 5 -10 14 -7 21 6 15 -37 58 -48 48 -4 -4
-12 0 -17 10 -12 21 -26 22 -26 2z"/>
<path d="M5045 8111 c-46 -20 -82 -100 -66 -144 5 -12 48 -66 96 -119 79 -88
89 -96 108 -85 31 18 77 66 77 80 0 12 -86 107 -96 107 -11 0 -32 27 -36 46
-2 12 -14 21 -33 24 -37 6 -40 34 -5 38 20 2 35 -10 73 -56 27 -33 68 -79 92
-102 l44 -43 20 24 c11 13 20 27 21 31 0 4 -42 51 -92 104 -87 90 -96 96 -138
100 -25 2 -54 0 -65 -5z"/>
<path d="M718 8074 c-9 -9 1 -55 20 -91 28 -54 680 -702 952 -946 36 -33 99
-91 141 -130 88 -83 105 -97 116 -97 4 -1 22 -12 38 -26 17 -15 23 -23 15 -18
-10 5 -8 0 4 -14 11 -12 27 -22 37 -22 10 0 24 -6 32 -14 25 -25 59 -23 130 9
29 12 28 13 -34 24 -34 6 -65 15 -68 20 -3 4 -21 12 -39 16 -18 3 -45 17 -60
29 -15 12 -40 30 -55 39 -15 10 -26 24 -25 30 3 11 -1170 1187 -1191 1195 -4
1 -10 0 -13 -4z"/>
<path d="M2928 7943 c10 -4 10 -9 -3 -23 -15 -16 -14 -18 9 -24 38 -9 104 -56
80 -56 -18 -1 -18 -1 -1 -11 19 -11 23 -34 7 -44 -6 -4 -9 -1 -8 6 2 6 -4 14
-12 16 -13 4 -13 3 0 -6 8 -6 11 -11 5 -11 -5 0 -1 -7 9 -15 23 -18 14 -20
-16 -4 -16 9 -19 8 -16 -2 3 -8 -1 -20 -9 -27 -7 -8 -10 -18 -7 -24 4 -7 2 -8
-4 -4 -11 6 -16 -5 -14 -25 1 -4 -7 -38 -18 -75 -26 -98 -33 -153 -22 -199 6
-22 10 -32 11 -22 1 24 34 21 60 -6 32 -35 82 -169 68 -185 -23 -29 79 -93
172 -108 47 -8 54 6 14 27 -92 48 -148 176 -123 280 9 39 25 63 69 109 31 33
65 60 74 60 17 0 17 -2 -2 -26 -22 -28 -29 -60 -10 -48 11 6 81 -24 87 -38 2
-5 12 -8 22 -8 10 0 21 -6 23 -12 3 -7 6 4 6 25 1 53 16 77 49 77 34 0 121
-41 143 -66 29 -33 43 -106 29 -152 -14 -51 7 -27 24 26 36 113 28 201 -27
305 -79 151 -243 216 -433 171 -72 -16 -77 -17 -89 -1 -7 9 -17 17 -24 17 -6
0 -11 4 -11 9 0 5 -14 14 -31 20 -17 6 -28 15 -24 21 4 6 3 10 -2 9 -20 -3
-27 2 -13 11 13 8 13 10 -1 10 -9 0 -19 7 -23 15 -3 8 -11 15 -18 14 -10 0
-10 -2 0 -6z"/>
<path d="M8961 7606 c-7 -9 -17 -14 -21 -11 -4 3 -10 -3 -12 -13 -6 -21 298
-356 332 -367 21 -7 50 9 50 26 0 5 -62 77 -137 161 -76 83 -152 167 -168 186
-27 31 -32 33 -44 18z"/>
<path d="M4940 7525 l-23 -24 58 -67 c32 -36 67 -71 77 -77 24 -16 24 -47 -1
-47 -13 0 -21 8 -23 23 -2 14 -11 23 -25 25 -14 2 -23 10 -23 20 0 18 -70 92
-87 92 -5 0 -22 -13 -38 -30 -16 -16 -34 -30 -41 -30 -15 0 -25 -24 -16 -37 4
-5 -22 21 -58 57 -60 63 -66 66 -82 51 -15 -15 -15 -18 8 -40 13 -13 24 -27
24 -32 0 -5 5 -9 10 -9 12 0 43 -30 65 -64 9 -14 26 -26 38 -28 12 -2 22 -10
22 -19 0 -9 31 -49 69 -89 l69 -73 76 -1 c56 -1 75 2 73 12 -1 6 6 12 16 12
10 0 25 9 35 20 18 21 9 28 -11 8 -15 -15 -44 -20 -35 -5 4 7 0 8 -13 2 -76
-32 -122 -14 -211 84 -40 44 -73 83 -73 88 0 4 7 -1 16 -12 50 -67 139 -146
176 -155 80 -22 149 26 147 104 0 22 -3 49 -7 58 -7 16 -169 200 -182 206 -3
1 -17 -9 -30 -23z"/>
<path d="M8870 7504 c0 -9 26 -43 58 -77 31 -34 79 -87 106 -117 110 -125 200
-210 223 -210 28 0 65 35 61 58 -2 13 -12 16 -45 14 -27 -2 -51 3 -67 14 -15
9 -92 88 -172 175 -80 88 -150 159 -155 159 -5 0 -9 -7 -9 -16z"/>
<path d="M3689 7240 c-26 -46 -43 -55 -64 -33 -15 15 -19 13 -45 -18 -40 -50
-178 -116 -263 -127 -139 -18 -249 20 -350 121 l-60 60 6 -69 c3 -39 13 -90
23 -114 40 -104 134 -207 213 -236 25 -10 51 -21 58 -26 6 -5 46 -9 90 -9 66
0 87 4 138 30 33 16 67 37 77 48 9 10 27 28 40 40 14 12 35 43 49 70 13 26 27
50 32 51 4 2 7 9 7 15 0 7 10 30 21 52 12 22 26 54 31 70 11 38 26 115 22 115
-1 0 -13 -18 -25 -40z"/>
<path d="M4087 6910 c-70 -73 -127 -136 -127 -141 0 -5 16 -31 36 -59 27 -37
31 -48 17 -44 -10 4 -27 15 -39 26 -23 21 -50 16 -59 -11 -3 -9 -39 -50 -80
-89 -72 -71 -100 -103 -77 -88 8 5 10 -5 6 -32 -4 -31 0 -48 23 -85 15 -26 34
-47 41 -47 7 0 11 -4 7 -9 -3 -5 0 -13 6 -16 5 -4 8 -13 5 -21 -3 -8 -1 -14 4
-14 6 0 9 -3 9 -7 -4 -22 3 -35 26 -45 14 -6 25 -16 24 -22 -3 -30 2 -46 16
-46 9 0 27 -12 40 -26 16 -17 25 -22 25 -13 1 10 4 9 14 -4 8 -10 17 -14 20
-9 3 5 28 12 55 14 41 4 54 11 81 41 18 21 36 37 41 37 5 0 27 20 50 45 23 25
48 45 55 45 8 0 14 5 14 10 0 6 7 10 16 10 15 0 15 3 -1 27 -10 14 -29 37 -44
49 -14 13 -20 24 -13 24 14 0 102 -87 102 -101 0 -5 -9 -9 -20 -9 -12 0 -94
-73 -215 -192 -196 -191 -196 -192 -176 -212 20 -19 21 -19 63 -1 24 11 59 31
78 44 34 25 140 110 150 121 3 3 21 17 40 30 58 41 241 200 297 257 57 60 69
93 54 149 -9 32 -8 41 7 57 16 18 15 20 -15 47 -18 16 -28 30 -23 32 5 2 -14
29 -42 61 -36 41 -56 57 -69 54 -10 -3 -18 -2 -17 2 5 19 -48 87 -130 169 -84
83 -124 113 -107 80 4 -7 -4 0 -18 15 l-24 28 -126 -131z m-27 -393 c9 -7 15
-18 14 -24 -1 -7 -2 -18 -3 -24 0 -5 -5 -7 -11 -4 -5 3 -10 2 -10 -4 0 -5 -9
-13 -20 -16 -17 -5 -18 -10 -9 -27 15 -27 6 -32 -16 -8 -23 26 -39 26 -32 0 3
-11 1 -20 -4 -20 -6 0 -5 -8 1 -20 13 -25 7 -25 -27 -3 l-26 18 17 -28 c10
-15 14 -27 8 -27 -13 0 -75 71 -67 78 3 3 11 0 17 -6 22 -22 29 -12 11 14 -17
27 -17 27 5 15 13 -7 22 -8 22 -2 0 6 7 8 15 5 17 -7 21 21 5 31 -18 11 -11
23 10 18 11 -3 20 -1 20 5 0 16 30 42 48 42 9 0 24 -6 32 -13z"/>
<path d="M6230 6886 c0 -19 -4 -37 -9 -41 -20 -12 20 -225 41 -225 5 0 8 -4 8
-9 0 -19 55 -101 71 -106 9 -3 20 -14 25 -25 5 -11 54 -66 109 -123 55 -57
114 -118 130 -137 34 -39 102 -99 107 -94 2 1 12 -10 23 -27 11 -16 28 -32 37
-35 10 -3 25 -15 35 -28 25 -31 99 -83 150 -106 24 -10 46 -26 49 -34 3 -8 11
-13 17 -10 7 2 30 -5 52 -16 21 -11 44 -20 50 -20 6 0 25 -13 43 -30 18 -16
40 -30 48 -30 8 0 17 -7 20 -15 3 -8 15 -17 26 -21 12 -3 17 -11 14 -20 -3 -8
-2 -13 3 -10 8 5 81 -57 193 -166 33 -32 64 -58 69 -58 5 0 9 -7 9 -16 0 -8 4
-13 8 -10 5 3 15 -3 24 -12 8 -9 32 -30 52 -47 21 -16 51 -44 67 -61 46 -49
165 -102 236 -105 71 -4 138 8 154 27 19 23 26 17 38 -32 7 -26 20 -63 31 -83
25 -49 1139 -1160 1180 -1178 41 -17 92 -17 133 1 18 7 84 67 148 132 149 152
393 423 387 430 -3 2 -63 -55 -134 -128 -199 -204 -332 -331 -371 -355 -53
-32 -97 -37 -155 -17 -56 18 -135 93 -811 764 -351 349 -368 367 -381 417 -8
28 -11 54 -9 57 3 3 7 22 9 42 3 36 39 88 54 79 4 -3 10 5 13 16 4 14 10 18
19 13 7 -4 10 -4 6 1 -11 11 12 36 25 28 5 -3 7 -2 4 4 -8 12 73 90 88 85 5
-2 7 0 3 4 -11 10 12 35 26 27 6 -3 8 -3 4 2 -11 11 12 36 25 28 6 -3 7 -1 3
6 -4 6 -1 14 7 17 8 3 17 15 20 26 3 11 10 17 15 14 5 -3 12 3 15 14 4 14 10
18 22 14 12 -5 16 -2 13 12 -2 14 2 18 15 16 13 -2 17 2 15 15 -2 13 2 17 15
15 13 -2 17 2 15 15 -2 10 3 18 10 18 17 0 16 18 -3 21 -8 1 -15 -2 -15 -7 0
-5 -7 -9 -15 -9 -12 0 -13 4 -5 19 5 11 10 29 10 40 0 10 4 21 8 23 11 4 52
94 52 113 0 9 6 26 14 38 15 25 20 187 5 187 -5 0 -9 6 -9 13 -1 6 -11 24 -23
39 l-22 27 -175 -175 c-266 -267 -450 -421 -543 -455 -94 -35 -89 -37 -283
154 -97 94 -183 175 -192 179 -10 3 -39 27 -67 52 l-50 46 26 22 c14 13 41 35
60 49 58 45 36 45 -106 -1 -29 -10 -33 -6 -120 81 l-90 90 30 25 c32 26 30 29
-9 14 -14 -5 -28 -5 -30 -1 -3 5 -31 0 -62 -10 -68 -23 -115 -24 -152 -5 -15
8 -148 136 -297 285 -148 149 -275 271 -282 271 -8 0 -13 -13 -13 -34z"/>
<path d="M5800 6700 c0 -6 -6 -9 -12 -7 -7 1 -12 -4 -10 -12 4 -21 -40 -64
-50 -49 -5 9 -8 4 -8 -12 0 -18 -3 -21 -9 -11 -5 7 -6 22 -4 32 4 15 2 18 -13
13 -31 -11 -35 -15 -28 -25 4 -7 10 -7 18 0 8 7 12 1 13 -21 0 -19 -2 -26 -7
-18 -6 9 -10 6 -13 -11 -3 -19 -5 -18 -6 9 -1 35 -14 42 -30 15 -6 -10 -11
-14 -11 -9 0 5 -7 3 -15 -4 -12 -10 -13 -16 -3 -27 9 -11 8 -13 -3 -11 -8 2
-13 -2 -12 -8 1 -6 -4 -11 -12 -11 -8 0 -12 3 -10 7 3 4 -4 15 -15 25 -17 15
-22 16 -37 4 -11 -9 -14 -10 -9 -1 10 17 2 15 -24 -8 -13 -11 -17 -20 -10 -20
7 0 10 -8 7 -20 -6 -23 3 -26 22 -7 10 8 12 8 7 0 -3 -6 -2 -14 4 -18 6 -4 10
7 10 25 0 39 25 36 26 -3 1 -14 -3 -24 -7 -21 -5 3 -9 -5 -9 -18 0 -18 -2 -20
-10 -8 -8 12 -10 11 -10 -7 0 -16 -4 -21 -15 -17 -8 4 -15 14 -15 24 0 10 -7
23 -15 30 -8 7 -12 17 -9 22 4 6 -3 5 -15 -1 -11 -7 -21 -16 -21 -21 0 -5 -8
-11 -17 -14 -20 -7 -58 -66 -42 -66 5 0 21 11 34 24 20 20 23 21 22 6 -1 -10
-6 -18 -12 -17 -5 1 -9 -3 -8 -10 2 -7 -3 -10 -11 -7 -11 4 -13 0 -9 -15 6
-23 19 -27 26 -8 4 9 6 9 6 0 1 -6 -3 -15 -9 -18 -5 -3 -10 -14 -10 -23 0 -15
2 -15 10 -2 8 13 10 12 10 -2 0 -10 -4 -18 -10 -18 -5 0 -10 -9 -10 -21 0 -26
-20 -20 -31 9 -11 29 -1 29 11 0 7 -20 9 -17 9 18 1 30 -5 46 -22 62 l-23 22
-23 -26 c-23 -27 -22 -45 2 -26 8 7 17 9 20 5 4 -3 7 -1 7 5 0 7 5 12 10 12 6
0 10 -7 10 -15 0 -8 -7 -15 -16 -15 -10 0 -14 -6 -10 -15 3 -8 1 -15 -4 -15
-5 0 -7 -7 -4 -15 4 -8 10 -12 15 -9 5 3 9 1 9 -5 0 -5 -5 -11 -11 -13 -6 -2
-2 -14 10 -28 11 -14 20 -19 21 -12 0 6 9 12 21 12 11 0 18 4 14 9 -3 5 -1 13
5 16 8 5 7 12 -2 23 -11 15 -11 15 4 4 11 -9 18 -10 23 -2 8 13 25 13 25 -1 0
-5 -4 -7 -10 -4 -6 4 -10 -6 -10 -22 0 -22 -2 -25 -10 -13 -8 12 -10 11 -10
-7 0 -17 -5 -21 -21 -18 -18 4 -19 2 -7 -12 9 -12 9 -15 1 -9 -8 4 -13 2 -13
-7 0 -7 -7 -14 -15 -14 -8 0 -15 7 -15 14 0 8 5 11 13 8 6 -4 1 3 -12 15 -14
11 -26 31 -27 43 -1 12 -3 25 -3 28 -2 12 -31 5 -31 -8 0 -8 5 -11 10 -8 16
10 12 2 -16 -36 -24 -31 -26 -31 -21 -9 4 14 1 32 -4 40 -9 13 -10 13 -6 -1 3
-10 -6 -28 -22 -43 -27 -26 -29 -26 -34 -7 -6 25 17 48 29 29 6 -9 10 -4 14
17 4 21 11 29 23 27 9 -2 17 2 17 7 0 24 -20 17 -63 -23 -41 -38 -45 -45 -33
-62 8 -12 10 -29 5 -44 -4 -14 -7 -19 -8 -12 -1 7 -6 10 -11 7 -6 -4 -8 -16
-4 -28 6 -18 5 -20 -8 -10 -12 10 -20 7 -44 -19 -16 -17 -23 -28 -16 -24 6 4
12 2 12 -3 0 -6 -8 -11 -18 -11 -9 0 -22 -10 -27 -22 -7 -16 -17 -22 -32 -20
-14 2 -23 -2 -23 -10 0 -10 -3 -9 -11 2 -8 11 -9 8 -5 -15 5 -25 4 -27 -5 -12
-6 10 -8 25 -5 32 13 36 -18 19 -76 -40 -36 -36 -70 -65 -76 -65 -6 0 -16 -9
-22 -19 -12 -24 -13 -34 -1 -27 5 3 14 0 20 -8 9 -10 5 -13 -17 -11 -37 2 -52
-4 -46 -20 3 -8 -6 -19 -23 -27 -15 -8 -27 -20 -26 -26 2 -7 -3 -12 -10 -12
-8 0 -21 -8 -30 -18 -13 -14 -14 -21 -5 -30 9 -9 17 -7 34 9 l23 22 -3 -29
c-5 -39 -4 -38 -19 -25 -8 6 -17 8 -21 4 -3 -4 -13 2 -20 13 -8 10 -18 16 -22
11 -4 -4 3 -19 17 -34 13 -14 19 -23 12 -19 -6 3 -14 2 -18 -4 -12 -19 -22
-10 -17 15 2 15 0 25 -8 25 -7 0 -9 -9 -6 -22 3 -13 3 -17 0 -10 -3 6 -10 12
-16 12 -6 0 -6 -6 2 -15 9 -11 10 -19 1 -28 -8 -10 -7 -17 2 -26 9 -10 8 -11
-7 -5 -14 5 -17 3 -14 -7 5 -16 59 -20 56 -4 -2 6 -7 9 -13 7 -5 -2 -7 0 -3 4
4 4 3 13 -3 21 -20 23 -3 14 29 -17 17 -16 27 -32 22 -35 -6 -4 -10 -1 -10 6
0 8 -5 8 -16 -2 -20 -17 -42 -20 -50 -7 -3 5 -17 13 -31 19 -13 5 -21 14 -18
19 4 6 11 8 16 5 5 -4 9 3 9 14 0 10 6 22 13 24 8 4 8 6 0 6 -6 1 -21 -11 -32
-25 -12 -15 -21 -24 -21 -20 0 4 -20 -13 -44 -36 -31 -31 -40 -46 -33 -56 5
-7 7 -16 3 -19 -4 -4 -11 -1 -16 7 -8 13 -11 13 -26 -1 -13 -14 -14 -21 -4
-40 7 -13 9 -21 5 -17 -10 10 -37 -11 -29 -23 3 -5 -2 -16 -10 -25 -9 -9 -16
-11 -16 -4 0 6 -4 8 -10 5 -5 -3 -10 1 -10 10 0 10 5 13 12 9 7 -5 8 -3 4 5
-10 16 -13 13 -198 -174 -100 -101 -144 -152 -135 -157 9 -6 8 -8 -3 -9 -8 -1
-18 -1 -21 -1 -10 2 -33 -47 -26 -55 4 -3 18 4 32 17 l24 23 -5 -29 c-3 -16
-11 -36 -18 -44 -8 -8 -12 -21 -10 -28 1 -7 0 -8 -3 -2 -7 15 -23 1 -16 -15 3
-8 0 -15 -6 -15 -6 0 -11 -7 -11 -16 0 -8 -4 -13 -9 -9 -5 3 -12 -3 -14 -12
-4 -17 -5 -17 -6 0 0 10 -5 15 -11 12 -21 -13 -9 8 15 27 14 11 23 24 19 29
-3 5 7 14 21 19 26 10 26 30 -1 30 -8 0 -14 5 -14 10 0 20 -24 9 -66 -30 -24
-22 -41 -40 -37 -40 3 0 -7 -10 -23 -22 -37 -29 -154 -150 -154 -159 0 -5 4
-11 10 -14 5 -3 10 -13 10 -22 0 -11 -5 -9 -19 8 -18 22 -18 22 -39 3 -22 -20
-21 -64 1 -64 8 0 8 -3 0 -11 -6 -6 -9 -19 -6 -28 4 -14 3 -14 -6 -1 -9 12
-12 13 -20 1 -6 -9 -11 -10 -15 -2 -4 6 -12 9 -17 6 -5 -3 -6 1 -2 10 4 11 14
15 29 12 27 -5 30 1 11 27 -12 16 -15 15 -45 -20 -18 -20 -32 -43 -32 -50 0
-20 151 -175 164 -167 6 3 8 2 3 -2 -9 -10 101 -125 120 -125 7 0 13 -4 13 -8
0 -16 37 -52 45 -44 5 4 5 2 2 -4 -3 -6 5 -21 18 -32 14 -12 25 -19 25 -15 0
3 9 -4 20 -17 11 -13 20 -20 20 -16 0 6 23 -17 60 -62 6 -7 15 -10 20 -7 6 3
7 -1 4 -10 -7 -18 24 -47 42 -41 6 3 11 -1 10 -8 -1 -17 84 -117 95 -110 5 3
9 0 9 -7 0 -7 41 -54 92 -105 64 -65 95 -89 101 -81 5 7 6 4 2 -9 -4 -16 7
-32 50 -72 30 -28 55 -48 55 -44 0 4 12 -6 26 -23 25 -28 27 -29 21 -6 -3 14
-2 20 3 15 5 -5 10 -23 12 -41 2 -20 18 -48 43 -75 60 -65 125 -145 125 -154
0 -4 -17 8 -37 26 -21 19 -9 5 26 -32 36 -37 69 -64 74 -61 6 3 7 1 3 -5 -3
-6 2 -17 12 -24 11 -7 20 -16 21 -20 4 -16 108 -107 115 -100 4 4 6 3 5 -3 -5
-15 24 -55 38 -55 7 0 13 -7 13 -15 0 -14 13 -20 35 -15 5 1 7 -2 2 -6 -7 -8
40 -64 54 -64 4 0 11 9 14 20 4 11 11 17 17 14 8 -5 9 -1 5 10 -4 9 -3 15 2
11 13 -7 43 24 35 37 -4 7 -2 8 5 4 16 -10 65 39 55 55 -5 8 -2 10 8 6 17 -6
78 50 78 71 0 7 5 11 11 9 6 -1 16 7 22 18 15 24 39 50 46 50 3 0 5 3 4 7 -2
5 3 7 10 5 6 -1 11 4 9 11 -1 8 2 11 6 8 12 -7 44 28 35 39 -5 4 -3 5 3 2 14
-8 54 25 54 43 0 7 3 11 6 8 7 -8 80 72 76 84 -1 4 3 7 10 6 6 -2 17 7 23 19
7 13 15 20 18 16 4 -3 7 1 7 10 0 9 3 16 8 16 22 -4 32 3 32 21 0 12 7 20 18
20 10 0 25 8 33 18 9 9 36 35 61 57 24 22 43 46 40 53 -2 7 2 10 10 7 18 -7
62 40 53 56 -5 8 -4 10 4 5 14 -9 43 12 35 25 -3 5 0 9 6 9 12 0 62 48 98 94
12 16 22 25 22 20 0 -4 13 5 30 21 16 15 27 32 24 37 -3 5 0 7 8 6 7 -2 12 3
10 10 -1 6 3 11 10 10 7 -2 17 7 23 20 5 12 13 22 17 22 5 0 9 15 9 33 1 31 2
31 8 5 5 -21 9 -25 21 -18 10 6 11 10 3 10 -7 0 -13 4 -13 9 0 5 8 8 17 7 12
-1 20 9 24 29 4 17 7 22 8 12 0 -10 6 -15 12 -12 6 4 8 9 5 12 -8 9 42 53 61
53 15 0 16 2 3 10 -13 8 -12 10 3 10 11 0 15 4 11 12 -4 7 -3 8 4 4 17 -11
202 175 198 199 -2 11 -1 14 1 8 8 -22 21 -14 16 10 -4 17 -2 19 5 7 9 -11 21
-4 64 42 30 30 52 61 50 68 -3 7 0 10 6 6 14 -8 120 95 115 111 -3 7 4 9 16 6
15 -4 23 1 30 18 5 13 10 20 10 15 1 -5 10 -1 21 9 11 10 17 22 14 27 -3 4 0
7 8 6 7 -2 12 3 10 10 -1 6 4 12 11 12 6 0 57 45 112 100 54 55 103 100 107
100 4 0 8 7 8 15 0 8 7 15 16 15 8 0 12 5 9 10 -3 6 -1 10 5 10 14 0 110 91
110 105 0 17 -253 260 -258 247 -2 -7 -8 -12 -14 -12 -6 0 -5 7 3 16 10 13 10
17 -1 24 -9 6 -18 4 -23 -3 -6 -8 -7 -7 -4 5 3 9 -2 25 -11 36 -17 18 -18 18
-36 0 -11 -10 -24 -18 -29 -18 -6 0 0 8 11 19 22 18 31 48 12 36 -5 -3 -10 1
-10 10 0 15 -1 15 -16 0 -9 -9 -19 -13 -22 -10 -4 3 0 10 8 16 10 5 11 12 5
17 -5 4 -11 14 -13 22 -5 19 -101 112 -121 115 -9 1 -15 8 -14 14 2 6 -2 11
-8 11 -5 0 -7 5 -4 10 3 6 -3 10 -14 10 -12 0 -21 -5 -21 -12 0 -6 -3 -8 -6
-5 -4 4 -2 13 5 20 8 11 7 18 -8 31 -11 10 -25 15 -32 10 -8 -4 -10 -3 -5 5 9
14 -12 43 -25 36 -4 -3 -6 -12 -3 -19 3 -7 -2 -16 -10 -19 -11 -5 -16 0 -16
13 0 11 5 20 10 20 6 0 10 5 10 11 0 12 -26 40 -37 39 -4 0 -8 4 -8 8 0 13
-32 42 -39 35 -3 -4 -6 1 -6 9 0 20 -27 31 -34 15 -2 -7 -5 -2 -5 11 -1 13 -5
20 -11 17 -5 -3 -10 0 -10 8 0 19 -34 48 -51 44 -8 -2 -11 -2 -6 0 11 7 9 33
-3 34 -5 1 -16 2 -22 3 -7 1 -16 -5 -20 -14 -5 -12 -7 -12 -7 3 -1 10 -5 16
-9 13 -5 -3 -7 -18 -6 -35 1 -18 -3 -29 -10 -28 -6 1 -10 -4 -9 -10 2 -7 -3
-12 -10 -10 -6 1 -11 -3 -10 -9 1 -6 -5 -11 -13 -11 -8 0 -13 7 -11 16 2 9 8
15 14 14 17 -3 36 24 23 32 -5 3 -10 11 -10 18 0 6 7 2 16 -9 15 -18 15 -18
10 5 -3 13 1 30 10 38 8 9 14 10 14 3 0 -6 5 -8 10 -5 7 4 7 13 0 26 -14 26
-40 25 -35 -1 2 -12 0 -18 -6 -14 -6 3 -8 16 -5 28 4 16 -2 30 -22 49 -16 15
-31 25 -35 22 -4 -3 -5 -2 -2 2 3 3 -2 15 -12 25 -15 17 -17 17 -35 2 -17 -16
-18 -16 -18 0 0 9 4 15 9 12 5 -4 4 5 -2 19 -7 14 -15 25 -18 25 -13 0 -30
-30 -24 -42 4 -7 0 -4 -9 6 -17 21 -13 36 10 36 23 0 17 10 -36 62 -31 31 -56
48 -65 44 -8 -3 -15 -1 -15 4 0 6 6 10 13 10 6 0 -7 19 -31 41 -26 26 -48 39
-58 35 -9 -3 -12 -2 -8 5 3 6 -4 21 -17 35 -17 18 -25 21 -31 12 -5 -9 -8 -5
-9 12 0 14 -3 19 -6 13 -2 -7 -12 -13 -21 -13 -12 0 -13 3 -5 11 6 6 9 18 6
25 -6 16 -33 19 -33 3 0 -6 -7 -4 -15 5 -21 20 -19 25 8 19 l22 -5 -24 17
c-19 15 -25 15 -32 4 -7 -12 -9 -11 -10 1 -1 8 -1 20 0 27 1 7 -9 17 -21 24
-20 11 -21 10 -11 -2 14 -17 5 -33 -19 -37 -23 -4 -23 4 2 38 17 24 18 29 5
34 -8 3 -15 1 -15 -4z m235 -607 c7 -17 8 -16 16 2 8 17 9 16 6 -7 -3 -17 3
-35 14 -47 11 -11 19 -24 19 -28 0 -5 9 -9 19 -10 14 -1 18 3 15 15 -5 15 -4
15 6 -1 6 -9 16 -14 22 -11 7 4 8 2 4 -4 -12 -20 6 -13 25 9 15 17 22 19 33
10 11 -10 15 -8 20 6 4 15 4 15 3 -2 -1 -11 3 -26 7 -34 7 -11 5 -13 -8 -8
-14 5 -17 3 -12 -8 3 -8 1 -15 -4 -15 -6 0 -10 14 -10 31 0 16 -4 28 -9 25 -5
-3 -7 -16 -3 -28 3 -14 2 -19 -7 -14 -6 4 -8 12 -5 18 4 7 2 8 -5 4 -8 -6 -9
-12 -2 -20 6 -7 7 -17 3 -21 -4 -5 -1 -5 6 -1 16 10 15 -2 -2 -20 -11 -11 -16
-11 -19 -1 -3 7 -6 5 -6 -5 -1 -11 -6 -15 -16 -12 -13 5 -12 9 5 24 11 9 20
22 20 28 0 17 -28 22 -40 6 -10 -11 -10 -14 -1 -14 7 0 9 -5 5 -11 -5 -8 -9
-8 -14 1 -4 7 -13 9 -19 5 -8 -4 4 -23 35 -55 37 -37 51 -46 61 -38 12 10 16
7 11 -9 -2 -5 -6 -7 -10 -5 -5 1 -8 -3 -8 -9 0 -6 -16 6 -36 27 -20 22 -33 34
-30 27 4 -6 2 -14 -4 -18 -6 -3 -10 3 -10 15 0 12 -7 28 -15 36 -11 11 -15 12
-15 3 0 -7 -3 -9 -6 -6 -4 4 -1 14 7 24 13 15 12 16 -6 9 -11 -5 -30 -11 -42
-13 -13 -3 -20 -10 -16 -17 4 -7 2 -7 -7 1 -10 9 -10 15 3 27 12 12 17 13 20
3 3 -6 6 1 6 16 1 16 -3 26 -8 23 -5 -4 -11 -1 -13 5 -2 7 -9 5 -17 -5 -9 -11
-10 -16 -2 -16 6 0 11 -5 11 -11 0 -5 -4 -7 -10 -4 -5 3 -10 0 -11 -7 0 -10
-2 -10 -6 0 -2 6 -10 9 -16 5 -7 -3 -4 3 7 15 17 19 17 22 2 28 -9 3 -13 11
-10 16 4 6 10 4 16 -6 5 -9 14 -14 19 -11 5 4 0 19 -12 36 -11 16 -25 26 -31
23 -7 -5 -8 -2 -3 5 5 9 13 8 29 -7 11 -11 29 -19 39 -19 24 0 21 33 -5 51
-17 12 -19 16 -6 16 9 0 19 -8 23 -17z m420 -223 c14 0 25 -5 25 -11 0 -5 -5
-7 -11 -3 -8 5 -8 1 0 -14 8 -15 7 -20 -2 -19 -35 1 -47 -5 -47 -22 0 -21 -17
-37 -27 -27 -4 4 -1 12 5 18 19 19 14 30 -9 17 -12 -6 -19 -7 -16 -2 2 4 1 17
-4 28 -5 13 -8 0 -7 -42 1 -40 -4 -68 -13 -79 -8 -10 -9 -15 -2 -11 6 4 14 4
17 -1 6 -9 -21 -13 -43 -6 -10 3 -11 7 -1 19 7 8 17 12 22 9 5 -4 8 4 6 17 -2
16 -9 23 -20 21 -12 -2 -18 3 -18 15 0 15 2 16 10 3 8 -12 10 -10 11 10 l1 25
8 -25 c8 -24 8 -23 9 7 1 29 -2 32 -21 29 -13 -3 -26 -5 -30 -5 -3 -1 -5 -9
-3 -18 1 -10 0 -12 -2 -5 -3 7 -9 10 -14 6 -5 -3 -7 -10 -4 -15 10 -15 -1 -10
-15 7 -8 8 -9 14 -4 12 5 -2 10 2 11 7 1 6 -6 8 -15 7 -9 -2 -14 -1 -10 4 4 4
3 13 -3 21 -6 7 -8 13 -5 13 4 0 1 6 -6 14 -7 8 -16 12 -20 9 -5 -2 -8 1 -8 6
0 16 16 13 30 -4 7 -8 17 -12 22 -9 6 4 5 10 -3 15 -11 7 -10 9 4 9 11 0 17
-8 17 -21 0 -11 -4 -17 -10 -14 -5 3 -10 0 -10 -7 0 -7 9 -19 21 -26 18 -12
20 -11 17 6 -3 22 28 62 49 62 8 0 12 -4 9 -8 -3 -5 6 -19 19 -30 19 -17 25
-18 25 -7 0 8 -4 15 -9 15 -5 0 -12 8 -16 18 -5 14 -4 15 6 5 14 -14 40 -18
38 -5 -4 21 3 24 11 5 6 -16 18 -23 35 -23z"/>
<path d="M703 6188 c-191 -183 -428 -412 -526 -508 -175 -171 -179 -176 -175
-213 l3 -37 215 210 c118 116 235 230 260 254 25 25 126 126 225 225 124 126
184 180 195 176 12 -5 12 -4 3 6 -10 10 -2 22 33 56 25 23 48 43 52 43 12 0
58 44 70 67 14 26 15 53 2 53 -5 0 -166 -150 -357 -332z"/>
<path d="M9543 5852 c-17 -2 -23 -10 -23 -30 0 -25 1 -25 15 -6 14 18 14 17
16 -16 1 -19 3 -27 6 -17 6 22 23 22 23 0 0 -15 2 -14 15 3 13 17 14 17 15 2
0 -15 10 -18 63 -19 34 -1 76 -2 92 -3 39 -2 54 5 29 16 -16 6 -15 7 6 5 17
-1 24 -7 22 -19 -1 -9 2 -19 8 -23 6 -4 8 3 6 17 -3 13 -5 26 -5 31 -1 4 -9 7
-19 7 -10 0 -22 3 -26 7 -3 4 -14 8 -24 9 -9 1 -32 7 -50 12 -19 6 -30 7 -27
1 4 -5 2 -9 -4 -9 -5 0 -11 5 -13 10 -2 6 -22 13 -46 15 -23 2 -45 5 -49 7 -5
2 -18 2 -30 0z"/>
<path d="M1170 5717 c-18 -29 -21 -167 -3 -185 7 -7 13 -22 13 -33 0 -10 5
-19 10 -19 6 0 10 -5 10 -11 0 -13 48 -62 76 -77 11 -6 58 -14 105 -17 65 -5
92 -3 119 9 40 17 37 18 -43 20 -43 1 -62 6 -71 19 -14 18 -42 23 -48 7 -2 -6
-15 -4 -32 5 -40 21 -43 19 -16 -10 29 -31 18 -32 -22 -4 -25 18 -78 88 -78
104 0 2 16 -12 36 -33 36 -37 36 -37 14 -4 -12 18 -19 39 -16 47 2 7 0 16 -7
19 -18 8 35 -1 58 -10 31 -11 55 -35 55 -56 0 -15 3 -17 19 -9 12 7 21 27 26
56 6 41 3 52 -25 96 -31 47 -60 63 -75 39 -3 -5 -11 -10 -16 -10 -6 0 -7 5 -3
11 4 8 0 8 -15 0 -11 -7 -20 -17 -18 -23 1 -6 -3 -12 -9 -14 -6 -3 -11 15 -13
43 -3 58 -12 70 -31 40z"/>
<path d="M2089 5706 c-33 -33 -78 -76 -329 -313 -68 -65 -159 -153 -203 -196
-63 -62 -83 -77 -100 -72 -16 5 -18 4 -8 -3 9 -7 10 -12 2 -16 -6 -4 -16 -17
-23 -29 -10 -20 -9 -20 23 4 19 15 51 42 70 60 19 19 90 86 158 149 195 184
464 450 454 450 -5 0 -25 -15 -44 -34z"/>
<path d="M9121 5432 l-23 -4 21 -15 c12 -8 19 -19 16 -24 -4 -5 -1 -9 4 -9 6
0 11 8 12 18 0 13 2 12 9 -5 7 -16 14 -21 26 -16 13 5 16 3 11 -10 -3 -9 -2
-17 3 -17 6 0 10 7 10 16 0 8 5 12 10 9 6 -4 8 -11 5 -16 -4 -5 -1 -9 4 -9 6
0 11 8 11 17 0 9 3 13 8 9 4 -4 7 -12 7 -18 0 -6 23 -11 55 -10 46 0 55 2 52
17 -2 10 1 14 7 10 6 -3 11 -13 11 -21 0 -8 5 -12 10 -9 6 4 8 11 5 16 -4 5
-1 9 4 9 6 0 11 -7 11 -16 0 -8 5 -12 10 -9 6 4 8 11 5 16 -4 5 4 10 17 10 13
1 -4 5 -37 9 -32 4 -61 13 -63 19 -2 6 -8 11 -13 11 -6 0 -7 -4 -4 -10 8 -13
-15 -13 -35 0 -12 8 -12 10 5 10 18 1 18 2 -2 10 -34 14 -123 19 -130 8 -3 -6
-8 -6 -12 -1 -3 4 -17 7 -30 5z"/>
<path d="M8350 5136 c0 -8 5 -18 11 -21 5 -4 14 -18 19 -31 11 -29 47 -45 98
-43 23 1 29 3 15 6 -13 2 -23 8 -23 13 0 5 15 4 32 -1 18 -5 35 -9 38 -10 15
-2 -40 -18 -64 -18 -16 -1 -26 -4 -22 -8 8 -8 14 -10 47 -12 11 0 17 -5 14
-11 -3 -5 2 -10 12 -11 10 -1 52 -2 93 -4 89 -4 93 -5 60 -15 -19 -6 -9 -8 40
-10 36 -1 88 -3 117 -3 28 -1 49 1 46 5 -2 5 -30 8 -61 9 -40 0 -51 3 -37 9
18 7 17 8 -10 15 -16 4 -43 11 -60 16 l-30 9 33 -5 c17 -2 32 0 32 4 0 10 -57
26 -77 22 -7 -1 -13 3 -13 8 0 6 -7 7 -17 4 -11 -4 -14 -3 -9 5 4 7 3 12 -3
12 -5 0 -13 -9 -16 -20 -4 -12 -15 -20 -28 -19 l-22 0 23 9 c12 5 22 14 22 21
0 6 -6 9 -14 6 -7 -3 -19 0 -25 6 -8 8 -11 8 -11 -2 0 -7 -5 -9 -12 -5 -7 4
-25 8 -41 9 -16 1 -34 9 -39 18 -5 9 -14 17 -21 17 -8 0 -8 -3 2 -9 8 -5 9
-11 3 -15 -6 -3 -13 3 -17 13 -4 12 -12 18 -21 14 -7 -3 -14 0 -14 7 0 6 -4 9
-9 5 -5 -3 -17 2 -25 11 -14 13 -16 14 -16 0z"/>
<path d="M7735 4959 c-5 -15 -10 -18 -15 -9 -6 9 -13 9 -33 -2 -42 -21 -162
-129 -188 -168 -34 -51 -61 -80 -70 -75 -15 10 -127 -140 -115 -153 3 -3 -3
-12 -15 -20 -19 -13 -19 -15 -3 -33 13 -14 15 -28 9 -65 -7 -49 6 -96 34 -125
9 -9 23 -25 32 -35 9 -11 58 -57 109 -104 52 -47 103 -94 114 -105 12 -11 39
-33 60 -49 21 -16 73 -60 115 -98 96 -87 192 -141 207 -117 3 5 10 7 15 4 5
-4 9 -1 9 5 0 6 -49 62 -109 123 -59 62 -150 156 -201 210 -54 57 -101 97
-112 97 -26 0 -17 12 45 56 l52 38 -28 -37 c-17 -22 -23 -38 -17 -42 8 -5 8
-11 0 -20 -9 -11 -7 -12 8 -8 25 6 94 -60 86 -82 -5 -11 -2 -13 10 -9 19 7 66
-31 66 -52 0 -7 17 -16 38 -19 20 -4 58 -10 84 -16 55 -10 156 15 166 41 3 8
15 29 27 45 25 34 37 75 37 124 -1 18 7 45 16 59 15 23 26 139 13 126 -9 -8
-61 50 -61 68 0 10 -3 17 -7 16 -15 -5 -50 27 -77 70 l-27 43 -26 -21 c-39
-30 -47 -24 -19 13 44 57 43 59 -133 258 -41 46 -78 85 -82 87 -4 2 -10 -7
-14 -19z"/>
<path d="M319 4911 c-21 -16 -23 -26 -22 -95 2 -111 29 -161 143 -258 11 -10
20 -16 20 -14 0 3 15 0 33 -6 53 -17 86 -18 80 -2 -3 9 2 14 14 14 74 0 218
84 267 156 12 19 25 31 29 28 3 -3 11 5 18 18 11 21 10 21 -27 -7 -21 -16 -41
-32 -44 -35 -3 -3 -34 -27 -70 -52 -73 -51 -117 -68 -172 -66 -32 2 -39 6 -48
31 -7 21 -7 34 1 43 7 9 8 14 1 14 -5 0 -9 16 -7 35 1 23 -8 51 -27 85 -28 50
-47 60 -77 41 -9 -6 -22 -6 -33 0 -13 7 -18 6 -18 -3 -1 -7 -8 0 -16 16 -9 15
-14 37 -11 47 7 27 -7 32 -34 10z"/>
<path d="M9721 4873 c-1 -6 -11 -13 -23 -16 -20 -3 -19 -5 10 -12 17 -4 32
-14 32 -21 0 -8 6 -14 14 -14 8 0 17 -6 19 -12 4 -10 6 -10 6 0 1 18 19 15 24
-5 4 -17 5 -17 6 0 0 9 6 17 11 17 6 0 10 -8 10 -17 1 -16 2 -16 15 1 15 20
15 20 15 0 1 -19 1 -19 15 0 13 17 15 17 15 4 0 -19 40 -21 52 -3 4 5 8 1 8
-11 0 -22 24 -35 49 -26 11 4 11 6 0 13 -10 6 -11 9 -1 9 14 0 16 46 2 55 -5
3 -10 0 -10 -7 0 -8 -3 -9 -8 -3 -6 10 -25 14 -74 18 -10 1 -18 4 -18 7 0 3
-12 5 -27 5 -16 -1 -32 1 -38 4 -19 10 -75 9 -82 -2 -4 -7 -9 -4 -14 9 -4 10
-8 14 -8 7z"/>
<path d="M8975 4515 c17 -14 26 -25 20 -26 -5 -1 1 -4 15 -8 14 -4 24 -13 23
-19 -2 -8 20 -12 72 -12 42 0 75 -4 75 -10 0 -5 -7 -7 -15 -4 -8 4 -15 1 -15
-5 0 -7 35 -11 105 -11 61 0 105 -4 105 -10 0 -5 -7 -7 -15 -4 -8 4 -15 1 -15
-5 0 -10 80 -16 153 -11 19 1 27 -3 27 -15 0 -14 3 -15 14 -6 11 9 15 9 19 -1
4 -10 7 -10 15 1 8 11 10 11 15 0 4 -12 7 -11 16 1 9 13 11 13 11 0 0 -10 3
-11 11 -3 8 8 20 8 35 3 19 -7 24 -6 24 5 0 8 5 15 11 15 5 0 7 -4 4 -10 -3
-5 -1 -10 4 -10 6 0 11 5 11 10 0 6 7 10 15 10 8 0 15 7 15 15 0 9 7 18 16 22
13 5 13 7 2 14 -10 7 -10 9 0 9 6 0 12 7 12 15 0 11 -10 9 -47 -10 -27 -13
-55 -25 -63 -27 -8 -2 -23 -12 -33 -23 -11 -12 -21 -16 -25 -9 -10 14 -42 25
-42 15 0 -5 3 -11 8 -14 4 -2 1 -2 -6 0 -8 1 -25 3 -38 3 -14 0 -23 4 -20 8 3
5 -8 6 -25 4 -24 -3 -28 -1 -23 12 3 9 1 16 -5 16 -6 0 -11 -4 -11 -10 0 -5
-9 -10 -20 -10 -11 0 -20 7 -20 15 0 8 -4 15 -10 15 -5 0 -10 -4 -10 -10 0 -5
-11 -10 -25 -10 -18 0 -23 4 -19 15 4 8 1 15 -5 15 -6 0 -11 -4 -11 -10 0 -11
-30 -13 -54 -4 -9 3 -16 15 -16 27 0 19 -1 19 -18 4 -26 -24 -51 -22 -45 3 4
16 2 19 -11 14 -10 -4 -16 -1 -16 7 0 10 -3 10 -11 2 -9 -9 -15 -8 -26 3 -11
11 -18 12 -29 3 -7 -6 -19 -7 -25 -3 -8 4 -9 3 -5 -4 10 -16 33 -15 39 1 3 7
6 5 6 -5 1 -10 -5 -18 -13 -18 -25 0 -81 23 -102 41 -11 11 -24 19 -30 19 -5
-1 5 -12 21 -25z"/>
<path d="M2790 4217 c0 -70 329 -481 840 -1047 111 -124 267 -292 345 -375
158 -166 470 -506 579 -630 38 -44 126 -142 195 -218 69 -76 137 -156 150
-178 20 -35 22 -43 11 -69 -7 -16 -35 -47 -64 -69 -107 -82 -166 -148 -203
-228 -32 -69 -37 -89 -41 -178 -4 -95 -3 -104 23 -155 84 -166 191 -280 320
-341 185 -88 371 -65 489 61 104 111 141 276 102 445 -8 33 -13 61 -12 62 1 1
29 -9 62 -22 229 -92 437 -29 531 163 l38 76 0 151 c0 171 -8 204 -81 316 -58
87 -199 213 -252 224 -34 6 -17 -14 68 -83 104 -83 173 -169 213 -265 22 -51
32 -127 18 -127 -6 0 -11 11 -11 24 0 44 -58 187 -89 218 -9 9 -37 39 -63 66
-27 28 -48 49 -48 47 0 -3 -21 9 -47 25 -53 34 -90 45 -178 56 -33 3 -67 10
-75 14 -22 12 50 23 115 18 30 -3 55 -1 55 2 0 12 -57 20 -139 20 -97 0 -146
-22 -259 -116 -128 -106 -153 -124 -174 -124 -44 0 -92 37 -179 138 -50 58
-274 306 -497 551 -224 244 -427 467 -451 495 -49 57 -144 146 -171 161 -10 6
-19 13 -19 18 -2 21 -335 370 -387 404 -27 17 -27 17 -15 -5 6 -12 18 -22 25
-22 7 0 23 -11 36 -25 13 -14 20 -25 15 -25 -5 0 2 -11 15 -25 12 -13 25 -23
29 -22 3 1 7 -2 9 -8 2 -5 13 -15 25 -22 12 -7 19 -12 16 -13 -4 0 26 -32 67
-71 40 -40 77 -81 80 -93 4 -11 17 -28 30 -39 13 -10 33 -31 44 -47 19 -27 19
-29 3 -23 -10 4 -20 9 -23 12 -3 3 -24 16 -48 29 l-42 23 -67 -67 -67 -67 -60
64 c-74 78 -186 205 -326 369 -58 68 -110 128 -116 134 -43 45 -112 141 -107
149 3 6 2 8 -3 5 -11 -7 -35 17 -27 26 4 3 17 6 29 6 12 0 29 7 38 15 8 9 18
16 21 16 14 -1 35 12 35 21 0 6 -7 5 -15 -2 -14 -11 -14 -10 -5 15 9 25 9 26
-5 15 -8 -7 -13 -16 -10 -20 7 -12 -31 -41 -56 -42 -13 -1 -31 -6 -39 -12 -10
-8 -10 -5 2 13 13 18 14 27 5 42 -9 14 -7 23 8 41 l20 23 -26 -22 -25 -23 -44
45 c-24 25 -50 45 -56 45 -7 0 -14 9 -16 20 -2 12 -18 30 -35 41 l-33 21 0
-25z m2236 -2145 c129 -151 193 -166 301 -71 70 61 79 49 37 -44 -23 -50 -28
-77 -29 -137 0 -41 3 -91 7 -110 7 -34 -2 -21 -16 24 -5 14 -9 16 -20 7 -11
-9 -15 -9 -19 1 -4 10 -7 10 -15 -1 -5 -7 -14 -11 -19 -8 -5 3 -9 -2 -10 -12
-1 -14 5 -17 30 -14 l32 4 -30 -15 c-16 -8 -25 -15 -19 -15 7 -1 14 -12 16
-26 3 -13 1 -22 -3 -19 -5 3 -50 53 -101 113 -51 59 -128 146 -171 194 -43 47
-76 91 -72 97 3 5 -1 13 -9 16 -13 5 -14 9 -2 25 11 16 11 27 -2 67 -9 26 -22
53 -29 60 -7 8 -18 23 -24 35 -12 26 77 -66 167 -171z m-7 -183 c164 -181 341
-387 341 -396 0 -5 13 -22 29 -37 37 -35 95 -152 116 -236 46 -178 -30 -367
-178 -440 -91 -44 -171 -49 -302 -17 -32 8 -121 55 -135 72 -7 8 -17 15 -22
15 -5 0 -21 11 -36 25 -22 21 -24 25 -9 25 26 0 59 -19 52 -31 -4 -5 -3 -8 2
-7 4 1 37 -11 73 -28 213 -102 409 -58 498 111 25 45 27 60 27 160 0 100 -3
115 -28 169 -15 32 -26 64 -23 71 6 16 -21 71 -58 120 -43 56 -53 65 -61 57
-5 -4 -4 -1 0 7 6 11 4 13 -8 8 -9 -3 -16 -3 -16 1 3 20 -2 33 -11 27 -5 -3
-10 0 -10 8 0 8 -6 19 -13 25 -10 8 -13 6 -14 -10 -1 -12 -8 -25 -15 -29 -7
-4 -9 -11 -5 -15 3 -4 13 -1 22 6 13 11 14 10 10 -2 -4 -10 6 -28 27 -48 l33
-32 -36 25 c-19 15 -62 38 -95 53 -107 49 -244 33 -355 -42 -28 -19 -55 -34
-61 -34 -5 0 -7 -3 -5 -7 3 -5 -1 -14 -9 -21 -11 -10 -14 -10 -14 1 0 20 115
135 142 142 26 7 83 78 91 115 3 14 0 42 -7 62 -9 26 -10 40 -3 47 10 10 -2
16 -25 12 -5 0 -8 4 -8 9 0 6 5 10 10 10 6 0 5 8 -2 19 -7 11 -16 17 -22 14
-5 -4 -6 3 -3 15 4 12 10 32 14 44 5 17 3 20 -9 15 -9 -3 -15 0 -15 6 1 32 -4
48 -13 42 -6 -3 -7 1 -4 9 3 9 -8 34 -26 58 -25 34 -20 31 25 -17 32 -33 96
-103 144 -156z m801 176 c129 -66 239 -230 248 -371 6 -96 -16 -163 -73 -220
-53 -53 -88 -71 -157 -82 -65 -10 -161 7 -228 40 -64 31 -162 132 -201 208
-30 59 -34 73 -34 150 0 80 2 89 35 144 41 68 114 138 162 154 18 6 69 10 113
8 64 -2 91 -8 135 -31z m315 -423 c6 -75 -49 -208 -104 -252 -102 -80 -242
-109 -357 -75 -130 38 -175 67 -167 109 l5 25 37 -28 c123 -98 259 -111 396
-39 78 41 128 101 158 192 10 27 17 63 17 79 0 37 13 28 15 -11z m-950 -177
c32 -15 86 -56 121 -90 151 -148 174 -335 58 -464 -63 -70 -125 -94 -228 -89
-69 3 -93 9 -159 40 -150 72 -257 208 -257 327 0 113 94 247 204 291 74 29
184 23 261 -15z"/>
<path d="M1980 4044 c-63 -64 -158 -130 -205 -143 -96 -26 -188 -4 -264 65
l-50 45 4 -43 c7 -87 68 -167 151 -197 48 -19 55 -19 120 -4 l69 15 117 120
c65 67 115 125 112 129 -3 5 2 9 10 9 9 0 16 3 17 8 0 4 2 15 4 25 6 33 -39
18 -85 -29z"/>
<path d="M460 3572 c0 -41 20 -72 105 -164 162 -176 259 -268 293 -279 84 -28
148 21 162 123 11 79 3 122 -21 105 -9 -7 -21 -23 -28 -35 -7 -13 -15 -21 -18
-18 -3 3 -14 1 -24 -4 -23 -13 -47 -3 -54 21 -4 10 -11 19 -16 19 -6 0 -31 22
-57 49 -68 70 -80 75 -120 44 l-33 -25 -94 93 c-74 72 -95 88 -95 71z"/>
<path d="M6502 3538 c13 -26 151 -169 348 -363 446 -439 720 -713 1321 -1320
1240 -1254 1831 -1846 1837 -1840 7 7 -178 195 -2007 2026 -810 812 -1482
1491 -1493 1508 -29 45 -33 38 -6 -11z"/>
<path d="M70 3200 c0 -37 26 -78 110 -176 138 -160 252 -273 287 -285 59 -19
117 10 152 78 24 48 12 205 -13 164 -4 -6 -5 -11 -2 -11 2 0 -11 -16 -30 -35
-36 -37 -73 -45 -94 -20 -7 8 -9 15 -5 15 7 0 -76 82 -128 127 l-25 21 -33
-24 -33 -24 -92 98 c-81 84 -93 94 -94 72z"/>
<path d="M2984 2919 c-61 -91 -163 -231 -196 -268 -7 -8 -20 -24 -28 -36 -14
-21 -93 -115 -116 -139 -6 -7 -32 -38 -58 -70 -26 -32 -56 -68 -66 -79 -214
-259 -210 -253 -210 -304 0 -62 -8 -72 -309 -393 -217 -230 -639 -657 -806
-814 -243 -227 -595 -521 -879 -734 l-109 -82 355 0 c304 0 357 2 368 15 7 8
19 15 26 15 8 0 14 4 14 10 0 5 11 12 25 16 14 3 25 10 25 14 0 5 8 11 18 14
9 4 42 29 72 56 30 27 60 50 65 50 6 0 28 17 51 38 63 58 93 82 103 82 5 0 13
9 16 20 3 11 11 20 16 20 5 0 8 6 7 13 -2 6 4 13 12 13 8 1 20 3 25 4 6 2 17
4 25 4 8 1 14 9 12 18 -1 9 7 18 19 21 11 3 18 10 14 16 -4 7 0 8 10 5 9 -4
15 -2 13 4 -3 10 68 91 185 213 26 27 47 56 47 64 0 8 8 15 18 15 18 0 62 49
62 70 0 5 5 10 10 10 6 0 10 7 10 16 0 8 5 12 10 9 6 -3 10 -3 10 2 0 10 55
77 97 119 17 18 29 35 26 38 -4 3 -1 6 6 6 7 0 10 4 7 9 -3 5 0 11 8 14 9 4
12 14 9 27 -4 15 -2 19 9 15 8 -3 23 7 36 25 13 17 27 28 32 25 6 -3 7 0 4 8
-3 8 2 21 10 30 9 9 16 20 16 26 0 6 5 11 10 11 6 0 10 6 10 14 0 8 5 18 12
22 7 5 8 2 3 -7 -6 -10 -5 -11 4 -3 7 6 13 21 14 33 1 11 9 24 19 27 10 3 16
9 13 14 -3 4 2 11 11 14 9 4 14 13 10 21 -3 9 1 15 10 15 9 0 18 9 21 20 3 11
9 20 14 20 5 0 14 11 19 25 5 14 16 25 25 25 8 0 14 3 13 8 -3 11 33 82 43 82
5 0 18 18 29 40 11 21 29 44 40 50 11 6 20 16 20 22 0 6 11 25 24 42 13 17 26
41 30 53 4 13 13 29 19 35 18 18 77 113 77 123 0 4 6 13 14 19 7 6 28 38 46
71 17 33 42 74 54 90 12 17 29 44 38 60 39 77 62 115 70 115 5 0 6 5 3 10 -3
6 -2 10 4 10 5 0 12 9 16 20 8 27 88 164 97 168 5 2 8 8 8 13 0 6 20 52 44
102 70 147 79 196 47 255 -10 19 -8 27 14 59 14 21 25 49 25 63 0 34 -11 70
-20 70 -4 0 -38 -45 -76 -101z"/>
<path d="M6034 2766 c-11 -8 -33 -16 -48 -18 -23 -2 -29 -9 -32 -31 -2 -17 4
-35 16 -47 10 -10 16 -21 13 -24 -4 -4 20 -3 138 7 24 2 25 4 13 22 -8 11 -14
27 -14 37 0 10 -4 18 -8 18 -5 0 -14 11 -20 25 -13 28 -29 31 -58 11z"/>
<path d="M711 2420 c-30 -11 -74 -35 -98 -54 -103 -80 -494 -449 -551 -520
l-62 -77 0 -241 0 -241 22 29 c13 16 26 31 30 32 15 7 8 22 -9 22 -34 0 12 31
47 32 28 1 42 -9 99 -68 102 -106 245 -266 264 -294 19 -27 23 -115 7 -125 -6
-4 -10 6 -10 22 0 22 -2 25 -10 13 -5 -8 -10 -10 -10 -5 0 6 -5 2 -11 -8 -12
-21 -87 -59 -152 -77 -87 -24 -199 6 -246 66 l-21 27 0 -126 0 -126 67 -20
c96 -29 179 -31 329 -10 146 20 233 48 374 119 131 66 211 125 394 290 354
319 392 363 417 488 16 77 3 168 -35 245 -14 29 -78 110 -146 185 -66 73 -163
182 -215 241 -52 60 -116 122 -142 139 -98 62 -230 79 -332 42z m236 -14 c77
-21 112 -46 199 -147 146 -168 149 -175 29 -59 -71 68 -138 123 -162 134 -24
11 -43 24 -43 30 0 8 -3 8 -8 0 -4 -8 -26 -10 -60 -6 -43 4 -55 9 -62 26 -4
11 -6 24 -3 29 7 11 52 8 110 -7z"/>
<path d="M3510 2342 c-8 -9 -63 -68 -122 -131 -105 -112 -122 -140 -98 -169 7
-9 7 -9 -2 -2 -17 15 -28 12 -28 -6 0 -9 -45 -61 -100 -115 -67 -67 -100 -107
-100 -122 0 -12 13 -49 30 -82 19 -39 28 -69 25 -87 -3 -15 -1 -30 5 -33 5 -3
10 -19 10 -36 0 -16 5 -29 10 -29 6 0 10 -6 10 -13 0 -8 8 -21 18 -30 14 -13
21 -14 30 -5 10 10 17 10 33 0 17 -11 20 -11 14 0 -3 7 1 4 9 -6 9 -11 16 -26
16 -34 0 -7 6 -12 13 -9 6 2 20 0 29 -4 10 -6 19 -5 23 1 3 5 30 10 59 10 46
0 56 4 86 35 19 19 40 35 47 35 7 0 13 6 13 13 0 19 63 77 83 77 9 0 17 -3 17
-7 0 -5 -83 -91 -185 -193 -104 -104 -185 -193 -185 -203 0 -10 4 -16 9 -13 5
3 12 -1 15 -10 3 -8 11 -12 17 -9 5 4 21 8 33 9 13 2 43 16 67 33 24 16 61 42
83 56 21 15 60 46 86 69 26 24 60 52 75 63 112 80 292 256 313 305 19 47 20
55 10 112 -6 35 -6 54 2 63 14 17 5 35 -18 35 -15 0 -15 2 -2 10 13 8 12 14
-5 47 -17 32 -78 99 -137 151 -10 8 -16 18 -13 22 6 9 -141 152 -189 184 -47
31 -60 33 -53 6 3 -11 1 -18 -4 -14 -5 3 -9 14 -9 25 0 23 -20 24 -40 1z"/>
<path d="M6427 2153 c-4 -3 -2 -12 4 -20 6 -7 9 -13 6 -13 -12 0 8 -38 43 -81
35 -43 126 -140 390 -412 74 -77 153 -159 175 -182 22 -23 96 -100 164 -171
136 -142 432 -442 456 -462 8 -7 15 -10 15 -6 0 3 6 1 14 -5 24 -20 121 4 132
33 3 9 14 18 24 21 18 6 96 143 86 152 -3 3 0 15 6 26 11 22 13 90 2 108 -4 7
-32 -14 -73 -53 -92 -90 -122 -108 -187 -115 l-56 -6 -591 591 c-691 690 -602
604 -610 595z"/>
<path d="M6415 689 c-110 -108 -211 -203 -225 -212 -28 -19 -101 -22 -133 -6
-12 6 -32 20 -44 31 l-21 20 8 -36 c16 -71 68 -117 132 -116 39 1 61 19 261
218 186 183 233 242 225 280 -3 12 -61 -39 -203 -179z"/>
<path d="M8052 542 c-45 -42 -82 -85 -82 -94 0 -9 -7 -15 -17 -14 -10 0 -26
-17 -41 -47 -24 -45 -25 -52 -13 -95 6 -25 23 -56 36 -68 14 -13 25 -27 25
-32 0 -21 72 -44 121 -40 27 3 49 1 49 -3 0 -9 -32 -13 -85 -10 -56 2 -117 42
-108 69 5 14 2 13 -16 -3 l-23 -20 21 -3 c29 -5 16 -22 -17 -24 -15 0 -4 -4
23 -7 l50 -7 -35 -11 -35 -11 40 -1 c36 -2 38 -3 22 -15 -15 -12 -13 -14 25
-21 l43 -9 -45 -6 c-45 -6 -45 -6 20 -11 36 -2 88 -2 115 0 l50 3 -35 13 -35
13 65 2 c51 1 60 3 42 11 -13 5 -28 7 -33 3 -5 -3 -9 0 -9 5 0 6 23 11 53 12
l52 1 -40 13 -40 13 50 2 50 2 -35 13 -35 13 48 1 c26 1 47 6 47 12 0 5 -4 8
-9 5 -5 -4 -20 -2 -33 3 -19 8 -15 10 27 11 l50 2 -35 13 -35 13 33 1 c34 1
44 16 15 24 -10 3 -3 5 15 6 32 1 43 15 20 24 -7 3 -1 6 15 6 30 1 37 17 10
24 -10 3 -3 5 15 6 37 1 43 17 10 24 -20 4 -19 4 5 6 15 0 27 6 27 12 0 6 -8
8 -17 5 -16 -5 -16 -4 0 8 11 8 26 12 35 9 11 -5 14 -2 9 10 -4 10 10 32 42
65 43 43 47 50 32 59 -13 8 -23 5 -46 -18 -15 -16 -26 -32 -22 -35 8 -9 -18
-34 -36 -34 -17 0 -62 -46 -50 -52 4 -3 3 -3 -4 -2 -7 2 -15 -2 -19 -7 -3 -6
-16 -8 -29 -5 -15 4 -25 1 -29 -9 -3 -8 -12 -15 -19 -15 -14 0 -91 77 -139
140 l-27 34 -58 -54 c-104 -98 -143 -148 -143 -182 0 -17 -3 -29 -6 -26 -3 4
-3 31 1 61 6 43 14 63 39 89 49 51 86 79 96 73 6 -4 10 4 10 15 0 15 5 20 14
17 13 -5 48 23 36 29 -3 1 -1 6 4 11 5 5 6 2 1 -6 -5 -8 -4 -12 1 -8 9 5 19
77 12 77 -2 0 -40 -35 -86 -78z"/>
<path d="M7120 400 c-9 -8 -105 -102 -215 -208 l-199 -192 44 0 c45 0 47 2
207 158 138 134 163 163 173 200 13 52 10 63 -10 42z"/>
<path d="M8469 131 c-29 -27 -58 -47 -64 -44 -5 4 -7 2 -2 -2 4 -5 -9 -26 -30
-47 l-37 -38 149 0 149 0 -50 53 c-74 77 -77 82 -64 106 16 31 8 26 -51 -28z"/>
</g>
</svg>
