<svg width="640" height="640" viewBox="0 0 640 640" fill="none" xmlns="http://www.w3.org/2000/svg">
<g clip-path="url(#clip0_21_432)">
<path d="M383.121 318.615C384.198 373.329 382.186 428.43 374.451 482.676C371.523 503.158 367.794 523.614 362.199 543.546C358.254 557.594 353.548 572.029 345.733 584.461C341.475 591.231 335.1 599.389 326.365 599.754C318.183 600.126 311.644 593.313 307.171 587.279C299.104 576.423 293.964 563.45 289.562 550.794C283.272 532.727 278.754 514.063 274.987 495.324C264.875 445.178 260.194 393.876 258.286 342.786C256.192 286.894 257.471 230.631 264.039 175.051C266.639 153.073 270.077 131.143 275.206 109.598C278.94 93.9154 283.465 78.1039 290.603 63.6313C294.689 55.3291 300.37 45.2212 309.367 41.4405C316.776 38.312 323.948 42.1111 329.158 47.483C337.5 55.8979 342.743 67.3597 347.153 78.2282C353.826 94.7174 358.538 111.976 362.535 129.28C373.562 177.352 378.832 226.805 381.533 275.994C382.31 290.184 382.842 304.383 383.13 318.592C383.153 319.897 385.173 320.121 385.168 318.814C384.058 264.898 379.948 210.76 370.37 157.605C366.794 137.601 362.376 117.653 356.348 98.2083C351.962 84.015 346.772 69.7341 338.978 57.0015C334.456 49.6167 328.205 41.1796 319.399 38.7733C311.381 36.581 304.171 41.0403 298.961 46.8705C290.425 56.3902 285.389 69.0897 281.264 81.0018C274.925 99.3086 270.761 118.385 267.424 137.444C258.12 190.525 255.261 244.798 255.369 298.618C255.479 354.353 258.951 410.286 267.535 465.403C270.766 486.872 275.174 508.148 280.738 529.134C285.004 544.841 290.02 560.589 297.404 575.144C304.427 589.002 319.394 610.897 336.932 597.739C345.923 591.001 351.295 579.687 355.504 569.598C362.379 553.108 366.776 535.588 370.387 518.136C380.869 467.435 384.414 415.179 385.242 363.527C385.489 348.635 385.458 333.746 385.15 318.859C385.133 317.538 383.084 317.321 383.121 318.615Z" fill="#5D5D5D"/>
<path d="M123.329 324.084C122.691 294.157 125.497 264.257 131.692 234.971C137.356 208.019 146.349 181.876 158.466 157.143C169.562 134.715 183.532 113.588 200.665 95.2872C216.192 78.7084 234.442 64.5086 254.99 54.6556C274.69 45.1413 296.284 40.1967 318.161 40.1902C338.423 40.3686 358.429 44.7459 376.914 53.0457C396.306 61.6651 413.832 74.1437 429.111 88.8059C445.853 104.883 460.038 123.638 471.696 143.725C484.362 165.694 494.406 189.073 501.623 213.383C509.485 239.776 514.442 266.948 516.407 294.417C518.674 324.402 517.511 354.548 512.939 384.269C508.703 412.1 501.113 439.315 490.335 465.321C480.423 488.975 467.616 511.513 451.546 531.547C437.095 549.556 419.919 565.529 400.157 577.571C381.44 588.975 360.421 596.579 338.586 598.983C318.02 601.201 297.219 598.93 277.616 592.327C257.821 585.692 239.592 574.973 223.525 561.747C206.039 547.379 191.136 530.131 178.557 511.418C164.746 490.629 153.528 468.23 145.152 444.719C136.024 419.272 129.737 392.893 126.404 366.064C124.644 352.134 123.618 338.121 123.329 324.084C123.303 322.786 121.286 322.555 121.291 323.862C121.814 352.233 125.412 380.465 132.022 408.06C138.103 433.569 147.111 458.29 158.866 481.732C169.703 503.162 183.063 523.427 199.193 541.256C213.768 557.369 230.638 571.512 249.652 582.117C267.533 592.233 287.26 598.661 307.668 601.023C329.031 603.303 350.634 600.804 370.913 593.705C392.254 586.247 411.707 574.004 428.49 558.961C446.799 542.553 462.106 522.932 474.471 501.737C488.103 478.205 498.647 453.015 505.843 426.789C513.761 398.156 518.279 368.69 519.302 338.999C520.41 309.752 518.291 280.472 512.983 251.69C508.153 225.247 500.332 199.439 489.672 174.763C480.003 152.239 467.506 131.037 452.481 111.669C438.742 94.1749 422.619 78.3862 404.161 65.9013C387.09 54.3514 368.021 45.7183 347.863 41.3658C327.084 36.8935 305.573 37.084 284.877 41.9237C263.274 47.0036 243.099 57.0301 225.364 70.304C206.172 84.6789 189.832 102.692 176.323 122.449C161.349 144.335 149.724 168.46 141.08 193.505C131.666 221.044 125.575 249.608 122.936 278.592C121.544 293.643 121.005 308.761 121.322 323.874C121.302 325.198 123.361 325.411 123.329 324.084Z" fill="#5D5D5D"/>
<path d="M600.192 314.138C601.02 353.686 593.454 392.961 577.995 429.371C562.535 465.782 539.532 498.502 510.503 525.373C481.474 552.244 447.078 572.656 409.584 585.262C372.09 597.869 332.349 602.384 292.982 598.51C253.616 594.635 215.518 582.46 181.2 562.786C146.883 543.111 117.127 516.386 93.8929 484.371C70.6591 452.357 54.4761 415.781 46.411 377.055C38.3458 338.329 38.5819 298.333 47.1035 259.705C53.2469 231.938 63.6488 205.288 77.9402 180.701C99.2577 143.92 128.676 112.481 163.962 88.7698C199.247 65.0589 239.472 49.7005 281.581 43.8608C311.04 39.7889 340.956 40.371 370.234 45.5857C433.72 56.8231 491.342 89.7336 533.276 138.706C575.211 187.678 598.86 249.679 600.192 314.138C600.244 316.734 604.324 317.214 604.271 314.574C603.688 284.88 598.459 255.461 588.775 227.385C579.337 200.229 565.797 174.679 548.626 151.622C518.312 110.847 477.626 78.9388 430.801 59.2162C383.976 39.4936 332.722 32.6771 282.369 39.4756C232.017 46.2741 184.406 66.4393 144.488 97.8738C104.57 129.308 73.8037 170.864 55.3884 218.219C44.8166 245.521 38.5772 274.309 36.8963 303.538C32.7437 376.752 57.1359 448.725 104.946 504.329C152.756 559.932 220.26 594.836 293.269 601.703C323.333 604.54 353.655 602.624 383.122 596.025C411.333 589.679 438.405 579.047 463.395 564.499C512.794 535.739 552.388 492.767 577.017 441.183C589.537 414.907 597.899 386.845 601.801 358.002C603.728 343.617 604.551 329.107 604.262 314.597C604.235 311.94 600.14 311.498 600.192 314.138Z" fill="#5D5D5D"/>
</g>
<defs>
<clipPath id="clip0_21_432">
<rect width="640" height="640" fill="white"/>
</clipPath>
</defs>
</svg>
